<svg xmlns="http://www.w3.org/2000/svg" viewBox="0 0 82.16 82.16"><title>Promotion bitcoin</title><g fill="#535353"><path d="M45.25 28.52l-7-1.14-1.51 9.18 7 1.14c2.79.46 5.88.35 6.53-3.61s-2.08-5.09-5.02-5.57zm-2.12 15.06l-7.29-1.2L34.08 53l7.68 1.26c3.28.54 6.58.35 7.34-4.27s-2.54-5.84-5.97-6.41z"/><path d="M46.25 9.61A32.32 32.32 0 0 0 41 9.18a31.89 31.89 0 0 0-25.83 50.49A31.89 31.89 0 1 0 46.25 9.61zm11.7 24.27a8.81 8.81 0 0 1-6.08 7.3c3.43 1.75 5.69 5.17 4.79 10.61-1.25 7.6-7.09 10.75-13.61 9.72l-.7 4.29-4.45-.73.7-4.28-5.81-1-.7 4.28-4.45-.73.7-4.28-.47-.06-2.35-.39-3.91-.61 1.12-6.81 3.92.64 4.19-25.5-3.92-.64L28 18.86l3.92.64 2.35.39.47.08.71-4.33 4.45.73-.71 4.33 5.81 1 .71-4.33 4.45.73-.72 4.36c5.63 1.2 9.56 4.89 8.51 11.42z"/><path d="M47.74.55a41.07 41.07 0 1 0 33.87 47.19A41.07 41.07 0 0 0 47.74.55zm30 46.56a37.2 37.2 0 0 1-36.58 31.16 37.65 37.65 0 0 1-6.11-.5 37.18 37.18 0 0 1-15.65-66.9 37.18 37.18 0 0 1 58.36 36.24z"/></g></svg>