<svg xmlns="http://www.w3.org/2000/svg" viewBox="0 0 932.74 1150.81"><title>Chicken</title><defs><style>.cls-3{fill:#fdd97f}.cls-4{fill:#fbc02a}.cls-24{fill:#ae2a0c}.cls-25{fill:#d43d1b}.cls-26{fill:#bf202e}.cls-27{fill:#fff}.cls-28{fill:#fb512a}.cls-29{fill:#ff7e69}.cls-31{fill:#f9b0a1}.cls-33{fill:#121617}.cls-34{fill:#fabe86}.cls-35{fill:#f69235}.cls-38{fill:#babdbc}</style><clipPath id="clip-path" transform="translate(-53.89 -44.28)"><path fill="none" d="M0 0h1040.02v1220.7H0z"/></clipPath></defs><g opacity=".02"><circle class="cls-3" cx="845.02" cy="625.46" r="84.26" transform="rotate(-68.12 785.295 643.185)"/><circle class="cls-4" cx="842.24" cy="612.44" r="84.26" transform="rotate(-68.12 782.514 630.162)"/><path class="cls-3" d="M820.77 589.9a18.93 18.93 0 0 0-4-9.31 38.08 38.08 0 0 0-7.21-6.49 27 27 0 0 0 10.06-1.1 20.15 20.15 0 0 0 7.28-4.25 18.23 18.23 0 0 0 4.68-6.7 18 18 0 0 0 .79-11.13 21.35 21.35 0 0 0-6.28-10.49 31.52 31.52 0 0 0-4.69-3.59l5.58-13.88-13.3-5.34-5.2 13-8.58-3.44 5.2-13-13.3-5.34-5.2 13-20.39-8.22-4.37 10.87 3.07 1.23a11.37 11.37 0 0 1 4 2.25 3.64 3.64 0 0 1 .94 2.16 14.06 14.06 0 0 1-1.34 4.59l-17.62 43.88a13.86 13.86 0 0 1-2.22 4.21 3.54 3.54 0 0 1-2.19.93 11.89 11.89 0 0 1-4.42-1.19l-3.06-1.23-4.37 10.87 20.32 8.16-5.2 12.95 13.3 5.34 5.2-12.95 8.56 3.44-5.2 12.95 13.32 5.35 5.64-14.05a34 34 0 0 0 6.54.71 25.25 25.25 0 0 0 13.89-3.75 20.9 20.9 0 0 0 8.43-10 19.85 19.85 0 0 0 1.32-10.48zm-30.88-52.06l8.61 3.46c5 2 8.43 3.75 10.14 5.17a9 9 0 0 1 3.21 4.91 9.74 9.74 0 0 1-.59 5.92 9.54 9.54 0 0 1-3.73 4.62 10.44 10.44 0 0 1-6.26 1.42c-2.46-.12-6-1.05-10.46-2.86l-8.61-3.46zm4.83 58.41a11.65 11.65 0 0 1-7.16 1.59 33.81 33.81 0 0 1-8.65-2.4l-5.74-2.31a12.69 12.69 0 0 1-3.39-1.73 1.87 1.87 0 0 1-.52-1.45 24.57 24.57 0 0 1 1.45-4.38l6.84-17 10.18 4.09c4.48 1.8 7.6 3.55 9.45 5.26a10.71 10.71 0 0 1 3.41 5.64 11.11 11.11 0 0 1-.71 6.58 12 12 0 0 1-5.16 6.12z"/></g><g opacity=".05"><circle class="cls-3" cx="845.02" cy="640.45" r="84.26" transform="rotate(-68.12 785.3 658.178)"/><circle class="cls-4" cx="842.24" cy="627.43" r="84.26" transform="rotate(-68.12 782.516 645.143)"/><path class="cls-3" d="M820.77 604.89a18.93 18.93 0 0 0-4-9.31 38.08 38.08 0 0 0-7.21-6.49 27 27 0 0 0 10.06-1.1 20.15 20.15 0 0 0 7.28-4.25 18.23 18.23 0 0 0 4.68-6.7 18 18 0 0 0 .79-11.13 21.35 21.35 0 0 0-6.28-10.49 31.52 31.52 0 0 0-4.69-3.59l5.58-13.88-13.3-5.34-5.2 13-8.58-3.44 5.2-13-13.3-5.34-5.2 13-20.32-8.16-4.37 10.87 3 1.18a11.37 11.37 0 0 1 4 2.25 3.64 3.64 0 0 1 .94 2.16 14.06 14.06 0 0 1-1.34 4.59l-17.62 43.88a13.86 13.86 0 0 1-2.22 4.21 3.54 3.54 0 0 1-2.19.93 11.89 11.89 0 0 1-4.42-1.19l-3.06-1.23-4.37 10.87 20.32 8.16-5.2 12.95 13.3 5.34 5.2-12.95 8.56 3.44-5.2 12.95 13.32 5.35 5.64-14.05a34 34 0 0 0 6.54.71 25.25 25.25 0 0 0 13.89-3.75 20.9 20.9 0 0 0 8.43-10 19.85 19.85 0 0 0 1.32-10.48zm-30.88-52.06l8.61 3.46c5 2 8.43 3.75 10.14 5.17a9 9 0 0 1 3.21 4.91 9.74 9.74 0 0 1-.59 5.92 9.54 9.54 0 0 1-3.73 4.62 10.44 10.44 0 0 1-6.26 1.42c-2.46-.12-6-1.05-10.46-2.86l-8.61-3.46zm4.83 58.41a11.65 11.65 0 0 1-7.16 1.59 33.81 33.81 0 0 1-8.65-2.4l-5.74-2.31a12.69 12.69 0 0 1-3.39-1.73 1.87 1.87 0 0 1-.52-1.45 24.57 24.57 0 0 1 1.45-4.38l6.84-17 10.18 4.09c4.48 1.8 7.6 3.55 9.45 5.26a10.71 10.71 0 0 1 3.41 5.64 11.11 11.11 0 0 1-.71 6.58 12 12 0 0 1-5.16 6.12z"/></g><g opacity=".07"><circle class="cls-3" cx="845.02" cy="655.44" r="84.26" transform="rotate(-68.12 785.302 673.158)"/><circle class="cls-4" cx="842.24" cy="642.41" r="84.26" transform="rotate(-68.12 782.514 660.13)"/><path class="cls-3" d="M820.77 619.88a18.93 18.93 0 0 0-4-9.31 38.08 38.08 0 0 0-7.21-6.49 27 27 0 0 0 10.06-1.1 20.15 20.15 0 0 0 7.28-4.25 18.23 18.23 0 0 0 4.68-6.7 18 18 0 0 0 .79-11.13 21.35 21.35 0 0 0-6.28-10.49 31.52 31.52 0 0 0-4.69-3.59l5.58-13.88-13.3-5.34-5.2 13-8.58-3.44 5.2-13-13.3-5.34-5.2 13-20.32-8.16-4.37 10.87 3 1.19a11.37 11.37 0 0 1 4 2.25 3.64 3.64 0 0 1 .94 2.16 14.06 14.06 0 0 1-1.34 4.59l-17.62 43.9a13.86 13.86 0 0 1-2.22 4.21 3.54 3.54 0 0 1-2.19.93 11.89 11.89 0 0 1-4.42-1.19l-3.06-1.23-4.37 10.87 20.32 8.16-5.2 12.95 13.3 5.34 5.2-12.95 8.56 3.44-5.2 12.95 13.32 5.35 5.64-14.05a34 34 0 0 0 6.54.71 25.25 25.25 0 0 0 13.89-3.75 20.9 20.9 0 0 0 8.43-10 19.85 19.85 0 0 0 1.32-10.48zm-30.88-52.06l8.61 3.46c5 2 8.43 3.75 10.14 5.17a9 9 0 0 1 3.21 4.91 9.74 9.74 0 0 1-.59 5.92 9.54 9.54 0 0 1-3.73 4.62 10.44 10.44 0 0 1-6.26 1.42c-2.46-.12-6-1.05-10.46-2.86L782.2 587zm4.83 58.41a11.65 11.65 0 0 1-7.16 1.59 33.81 33.81 0 0 1-8.65-2.4l-5.74-2.31a12.69 12.69 0 0 1-3.39-1.73 1.87 1.87 0 0 1-.52-1.45 24.57 24.57 0 0 1 1.45-4.38l6.84-17 10.18 4.09c4.48 1.8 7.6 3.55 9.45 5.26a10.71 10.71 0 0 1 3.41 5.64 11.11 11.11 0 0 1-.71 6.58 12 12 0 0 1-5.16 6.12z"/></g><g opacity=".1"><circle class="cls-3" cx="845.02" cy="670.43" r="84.26" transform="rotate(-68.12 785.299 688.146)"/><circle class="cls-4" cx="842.24" cy="657.4" r="84.26" transform="rotate(-68.12 782.51 675.119)"/><path class="cls-3" d="M820.77 634.86a18.93 18.93 0 0 0-4-9.31 38.08 38.08 0 0 0-7.21-6.49 27 27 0 0 0 10.06-1.1 20.15 20.15 0 0 0 7.28-4.25 18.23 18.23 0 0 0 4.68-6.7 18 18 0 0 0 .79-11.13 21.35 21.35 0 0 0-6.28-10.49 31.52 31.52 0 0 0-4.69-3.59l5.58-13.88-13.3-5.34-5.2 13-8.58-3.44 5.2-13-13.3-5.34-5.2 13-20.32-8.16-4.37 10.87 3 1.21a11.37 11.37 0 0 1 4 2.25 3.64 3.64 0 0 1 .94 2.16 14.06 14.06 0 0 1-1.34 4.59l-17.62 43.88a13.86 13.86 0 0 1-2.22 4.21 3.54 3.54 0 0 1-2.19.93 11.89 11.89 0 0 1-4.42-1.19l-3.06-1.23-4.37 10.87 20.32 8.16-5.2 12.95 13.3 5.34 5.2-12.95 8.56 3.44-5.2 12.95 13.32 5.35 5.64-14.05a34 34 0 0 0 6.54.71 25.25 25.25 0 0 0 13.89-3.75 20.9 20.9 0 0 0 8.43-10 19.85 19.85 0 0 0 1.32-10.48zm-30.88-52.06l8.61 3.46c5 2 8.43 3.75 10.14 5.17a9 9 0 0 1 3.21 4.91 9.74 9.74 0 0 1-.59 5.92 9.54 9.54 0 0 1-3.73 4.62 10.44 10.44 0 0 1-6.26 1.42c-2.46-.12-6-1.05-10.46-2.86l-8.61-3.46zm4.83 58.41a11.65 11.65 0 0 1-7.16 1.59 33.81 33.81 0 0 1-8.65-2.4l-5.74-2.31a12.69 12.69 0 0 1-3.39-1.73 1.87 1.87 0 0 1-.52-1.45 24.57 24.57 0 0 1 1.45-4.38l6.84-17 10.18 4.09c4.48 1.8 7.6 3.55 9.45 5.26a10.71 10.71 0 0 1 3.41 5.64 11.11 11.11 0 0 1-.71 6.58 12 12 0 0 1-5.16 6.12z"/></g><g opacity=".12"><circle class="cls-3" cx="845.02" cy="685.42" r="84.26" transform="rotate(-68.12 785.296 703.134)"/><circle class="cls-4" cx="842.24" cy="672.39" r="84.26" transform="rotate(-68.12 782.516 690.111)"/><path class="cls-3" d="M820.77 649.85a18.93 18.93 0 0 0-4-9.31 38.08 38.08 0 0 0-7.21-6.49 27 27 0 0 0 10.06-1.1 20.15 20.15 0 0 0 7.28-4.25 18.23 18.23 0 0 0 4.68-6.7 18 18 0 0 0 .79-11.13 21.35 21.35 0 0 0-6.28-10.49 31.52 31.52 0 0 0-4.69-3.59l5.58-13.88-13.3-5.34-5.2 13-8.58-3.44 5.2-13-13.3-5.34-5.2 13-20.32-8.16-4.37 10.87 3 1.22a11.37 11.37 0 0 1 4 2.25 3.64 3.64 0 0 1 .94 2.16 14.06 14.06 0 0 1-1.34 4.59l-17.62 43.88a13.86 13.86 0 0 1-2.22 4.21 3.54 3.54 0 0 1-2.19.93 11.89 11.89 0 0 1-4.42-1.19l-3.06-1.23-4.37 10.87 20.32 8.16-5.2 12.95 13.3 5.34 5.2-12.95 8.56 3.44-5.2 12.95 13.32 5.35 5.64-14.05a34 34 0 0 0 6.54.71 25.25 25.25 0 0 0 13.89-3.75 20.9 20.9 0 0 0 8.43-10 19.85 19.85 0 0 0 1.32-10.48zm-30.88-52.06l8.61 3.46c5 2 8.43 3.75 10.14 5.17a9 9 0 0 1 3.21 4.91 9.74 9.74 0 0 1-.59 5.92 9.54 9.54 0 0 1-3.73 4.62 10.44 10.44 0 0 1-6.26 1.42c-2.46-.12-6-1.05-10.46-2.86l-8.61-3.46zm4.83 58.41a11.65 11.65 0 0 1-7.16 1.59 33.81 33.81 0 0 1-8.65-2.4l-5.74-2.31a12.69 12.69 0 0 1-3.39-1.73 1.87 1.87 0 0 1-.52-1.45 24.57 24.57 0 0 1 1.45-4.38l6.84-17 10.18 4.09c4.48 1.8 7.6 3.55 9.45 5.26a10.71 10.71 0 0 1 3.41 5.64 11.11 11.11 0 0 1-.71 6.58 12 12 0 0 1-5.16 6.12z"/></g><g opacity=".14"><circle class="cls-3" cx="845.02" cy="700.41" r="84.26" transform="rotate(-68.12 785.301 718.127)"/><circle class="cls-4" cx="842.24" cy="687.38" r="84.26" transform="rotate(-68.12 782.513 705.1)"/><path class="cls-3" d="M820.77 664.84a18.93 18.93 0 0 0-4-9.31 38.08 38.08 0 0 0-7.21-6.49 27 27 0 0 0 10.06-1.1 20.15 20.15 0 0 0 7.28-4.25 18.23 18.23 0 0 0 4.68-6.7 18 18 0 0 0 .79-11.13 21.35 21.35 0 0 0-6.28-10.49 31.52 31.52 0 0 0-4.69-3.59l5.58-13.88-13.3-5.34-5.2 13-8.58-3.44 5.2-13-13.36-5.4-5.2 13-20.32-8.16-4.37 10.87 3.06 1.23a11.37 11.37 0 0 1 4 2.25 3.64 3.64 0 0 1 .94 2.16 14.06 14.06 0 0 1-1.34 4.65l-17.62 43.88a13.86 13.86 0 0 1-2.22 4.21 3.54 3.54 0 0 1-2.19.93 11.89 11.89 0 0 1-4.42-1.19l-3.06-1.23-4.37 10.87 20.32 8.16-5.2 12.95 13.3 5.34 5.2-12.95 8.56 3.44-5.2 12.95 13.32 5.35 5.64-14.05a34 34 0 0 0 6.54.71 25.25 25.25 0 0 0 13.89-3.75 20.9 20.9 0 0 0 8.43-10 19.85 19.85 0 0 0 1.32-10.48zm-30.88-52.06l8.61 3.46c5 2 8.43 3.75 10.14 5.17a9 9 0 0 1 3.21 4.91 9.74 9.74 0 0 1-.59 5.92 9.54 9.54 0 0 1-3.73 4.62 10.44 10.44 0 0 1-6.26 1.42c-2.46-.12-6-1.05-10.46-2.86l-8.61-3.46zm4.83 58.41a11.65 11.65 0 0 1-7.16 1.59 33.81 33.81 0 0 1-8.65-2.4l-5.74-2.31a12.69 12.69 0 0 1-3.39-1.73 1.87 1.87 0 0 1-.52-1.45 24.57 24.57 0 0 1 1.45-4.38l6.84-17 10.18 4.09c4.48 1.8 7.6 3.55 9.45 5.26a10.71 10.71 0 0 1 3.41 5.64 11.11 11.11 0 0 1-.71 6.58 12 12 0 0 1-5.16 6.12z"/></g><g opacity=".17"><circle class="cls-3" cx="845.02" cy="715.4" r="84.26" transform="rotate(-68.12 785.298 733.115)"/><circle class="cls-4" cx="842.24" cy="702.37" r="84.26" transform="rotate(-68.12 782.51 720.087)"/><path class="cls-3" d="M820.77 679.83a18.93 18.93 0 0 0-4-9.31 38.08 38.08 0 0 0-7.21-6.49 27 27 0 0 0 10.06-1.1 20.15 20.15 0 0 0 7.28-4.25 18.23 18.23 0 0 0 4.68-6.7 18 18 0 0 0 .79-11.13 21.35 21.35 0 0 0-6.28-10.49 31.52 31.52 0 0 0-4.69-3.59l5.58-13.88-13.3-5.34-5.2 13-8.58-3.44 5.2-13-13.36-5.39-5.2 13-20.32-8.16-4.37 10.87 3.06 1.23a11.37 11.37 0 0 1 4 2.25 3.64 3.64 0 0 1 .94 2.16 14.06 14.06 0 0 1-1.34 4.65l-17.62 43.88a13.86 13.86 0 0 1-2.22 4.21 3.54 3.54 0 0 1-2.19.93 11.89 11.89 0 0 1-4.42-1.19l-3.06-1.23-4.37 10.87 20.32 8.16-5.2 12.95 13.3 5.34 5.2-12.95 8.56 3.44-5.2 12.95 13.32 5.35 5.64-14.05a34 34 0 0 0 6.54.71 25.25 25.25 0 0 0 13.89-3.75 20.9 20.9 0 0 0 8.43-10 19.85 19.85 0 0 0 1.32-10.48zm-30.89-52.11l8.61 3.46c5 2 8.43 3.75 10.14 5.17a9 9 0 0 1 3.21 4.91 9.74 9.74 0 0 1-.59 5.92 9.54 9.54 0 0 1-3.73 4.62 10.44 10.44 0 0 1-6.26 1.42c-2.46-.12-6-1.05-10.46-2.86l-8.61-3.46zm4.83 58.41a11.65 11.65 0 0 1-7.16 1.59 33.81 33.81 0 0 1-8.65-2.4l-5.74-2.31a12.69 12.69 0 0 1-3.39-1.73 1.87 1.87 0 0 1-.52-1.45 24.57 24.57 0 0 1 1.45-4.38l6.84-17 10.18 4.09c4.48 1.8 7.6 3.55 9.45 5.26a10.71 10.71 0 0 1 3.41 5.64 11.11 11.11 0 0 1-.71 6.58 12 12 0 0 1-5.16 6.12z"/></g><g opacity=".19"><circle class="cls-3" cx="845.02" cy="730.38" r="84.26" transform="rotate(-68.12 785.296 748.103)"/><circle class="cls-4" cx="842.24" cy="717.36" r="84.26" transform="rotate(-68.12 782.508 735.075)"/><path class="cls-3" d="M820.77 694.82a18.93 18.93 0 0 0-4-9.31 38.08 38.08 0 0 0-7.21-6.49 27 27 0 0 0 10.06-1.1 20.15 20.15 0 0 0 7.28-4.25 18.23 18.23 0 0 0 4.68-6.7 18 18 0 0 0 .79-11.13 21.35 21.35 0 0 0-6.28-10.49 31.52 31.52 0 0 0-4.69-3.59l5.58-13.88-13.3-5.34-5.2 13-8.58-3.44 5.2-13-13.36-5.38-5.2 13-20.32-8.16-4.37 10.87 3.06 1.23a11.37 11.37 0 0 1 4 2.25 3.64 3.64 0 0 1 .94 2.16 14.06 14.06 0 0 1-1.34 4.65l-17.62 43.88a13.86 13.86 0 0 1-2.22 4.21 3.54 3.54 0 0 1-2.19.93 11.89 11.89 0 0 1-4.37-1.22l-3.06-1.23-4.37 10.87 20.32 8.16-5.2 12.95 13.3 5.34 5.2-12.95 8.56 3.44-5.2 12.95 13.32 5.35 5.64-14.05a34 34 0 0 0 6.54.71 25.25 25.25 0 0 0 13.89-3.75 20.9 20.9 0 0 0 8.43-10 19.85 19.85 0 0 0 1.32-10.48zm-30.89-52.1l8.61 3.46c5 2 8.43 3.75 10.14 5.17a9 9 0 0 1 3.21 4.91 9.74 9.74 0 0 1-.59 5.92 9.54 9.54 0 0 1-3.73 4.62 10.44 10.44 0 0 1-6.26 1.42c-2.46-.12-6-1.05-10.46-2.86l-8.61-3.46zm4.83 58.41a11.65 11.65 0 0 1-7.16 1.59 33.81 33.81 0 0 1-8.65-2.4l-5.74-2.31a12.69 12.69 0 0 1-3.39-1.73 1.87 1.87 0 0 1-.52-1.45 24.57 24.57 0 0 1 1.45-4.38l6.84-17 10.18 4.09c4.48 1.8 7.6 3.55 9.45 5.26a10.71 10.71 0 0 1 3.41 5.64 11.11 11.11 0 0 1-.71 6.58 12 12 0 0 1-5.16 6.12z"/></g><g opacity=".22"><circle class="cls-3" cx="845.02" cy="745.37" r="84.26" transform="rotate(-68.12 785.293 763.09)"/><circle class="cls-4" cx="842.24" cy="732.35" r="84.26" transform="rotate(-68.12 782.512 750.068)"/><path class="cls-3" d="M820.77 709.81a18.93 18.93 0 0 0-4-9.31 38.08 38.08 0 0 0-7.21-6.49 27 27 0 0 0 10.06-1.1 20.15 20.15 0 0 0 7.28-4.25 18.23 18.23 0 0 0 4.68-6.7 18 18 0 0 0 .79-11.13 21.35 21.35 0 0 0-6.28-10.49 31.52 31.52 0 0 0-4.69-3.59l5.58-13.88-13.3-5.34-5.2 13-8.58-3.44 5.2-13-13.36-5.37-5.2 13-20.33-8.2-4.37 10.87 3.06 1.23a11.37 11.37 0 0 1 4 2.25 3.64 3.64 0 0 1 .94 2.16 14.06 14.06 0 0 1-1.33 4.69l-17.62 43.88a13.86 13.86 0 0 1-2.22 4.21 3.54 3.54 0 0 1-2.19.93 11.89 11.89 0 0 1-4.42-1.19l-3.06-1.23-4.37 10.87 20.32 8.16-5.2 12.95 13.3 5.34 5.2-12.95 8.56 3.44-5.2 12.95 13.32 5.35 5.64-14.05a34 34 0 0 0 6.54.71 25.25 25.25 0 0 0 13.89-3.75 20.9 20.9 0 0 0 8.43-10 19.85 19.85 0 0 0 1.32-10.48zm-30.89-52.09l8.61 3.46c5 2 8.43 3.75 10.14 5.17a9 9 0 0 1 3.21 4.91 9.74 9.74 0 0 1-.59 5.92 9.54 9.54 0 0 1-3.73 4.62 10.44 10.44 0 0 1-6.26 1.42c-2.46-.12-6-1.05-10.46-2.86l-8.61-3.46zm4.83 58.41a11.65 11.65 0 0 1-7.16 1.59 33.81 33.81 0 0 1-8.65-2.4l-5.74-2.31a12.69 12.69 0 0 1-3.39-1.73 1.87 1.87 0 0 1-.52-1.45 24.57 24.57 0 0 1 1.45-4.38l6.84-17 10.18 4.09c4.48 1.8 7.6 3.55 9.45 5.26a10.71 10.71 0 0 1 3.41 5.64 11.11 11.11 0 0 1-.71 6.58 12 12 0 0 1-5.16 6.12z"/></g><g opacity=".24"><circle class="cls-3" cx="845.02" cy="760.36" r="84.26" transform="rotate(-68.12 785.298 778.084)"/><circle class="cls-4" cx="842.24" cy="747.33" r="84.26" transform="rotate(-68.12 782.515 765.049)"/><path class="cls-3" d="M820.77 724.8a18.93 18.93 0 0 0-4-9.31 38.08 38.08 0 0 0-7.21-6.49 27 27 0 0 0 10.06-1.1 20.15 20.15 0 0 0 7.28-4.25 18.23 18.23 0 0 0 4.68-6.7 18 18 0 0 0 .79-11.13 21.35 21.35 0 0 0-6.28-10.49 31.52 31.52 0 0 0-4.69-3.59l5.58-13.88-13.3-5.34-5.2 13-8.58-3.44 5.2-13-13.36-5.36-5.2 13-20.32-8.16-4.37 10.87 3.06 1.23a11.37 11.37 0 0 1 4 2.25 3.64 3.64 0 0 1 .94 2.16 14.06 14.06 0 0 1-1.33 4.63l-17.62 43.88a13.86 13.86 0 0 1-2.22 4.21 3.54 3.54 0 0 1-2.19.93 11.89 11.89 0 0 1-4.42-1.19l-3.06-1.23-4.37 10.87 20.32 8.16-5.2 12.95 13.3 5.34 5.2-12.95 8.56 3.44-5.2 12.95 13.32 5.35 5.64-14.05a34 34 0 0 0 6.54.71 25.25 25.25 0 0 0 13.89-3.75 20.9 20.9 0 0 0 8.43-10 19.85 19.85 0 0 0 1.32-10.48zm-30.89-52.08l8.61 3.46c5 2 8.43 3.75 10.14 5.17a9 9 0 0 1 3.21 4.91 9.74 9.74 0 0 1-.59 5.92 9.54 9.54 0 0 1-3.73 4.62 10.44 10.44 0 0 1-6.26 1.42c-2.46-.12-6-1.05-10.46-2.86l-8.61-3.46zm4.83 58.41a11.65 11.65 0 0 1-7.16 1.59 33.81 33.81 0 0 1-8.65-2.4l-5.74-2.31a12.69 12.69 0 0 1-3.39-1.73 1.87 1.87 0 0 1-.52-1.45 24.57 24.57 0 0 1 1.45-4.38l6.84-17 10.18 4.09c4.48 1.8 7.6 3.55 9.45 5.26a10.71 10.71 0 0 1 3.41 5.64 11.11 11.11 0 0 1-.71 6.58 12 12 0 0 1-5.16 6.12z"/></g><g opacity=".27"><circle class="cls-3" cx="845.02" cy="775.35" r="84.26" transform="rotate(-68.12 785.3 793.064)"/><circle class="cls-4" cx="842.24" cy="762.32" r="84.26" transform="rotate(-68.12 782.512 780.037)"/><path class="cls-3" d="M820.77 739.78a18.93 18.93 0 0 0-4-9.31 38.08 38.08 0 0 0-7.21-6.49 27 27 0 0 0 10.06-1.1 20.15 20.15 0 0 0 7.28-4.25 18.23 18.23 0 0 0 4.68-6.7 18 18 0 0 0 .79-11.13 21.35 21.35 0 0 0-6.28-10.49 31.52 31.52 0 0 0-4.69-3.59l5.58-13.88-13.3-5.34-5.2 13-8.58-3.44 5.2-13-13.36-5.34-5.2 13-20.32-8.16-4.37 10.87 3.06 1.23a11.37 11.37 0 0 1 4 2.25 3.64 3.64 0 0 1 .94 2.16 14.06 14.06 0 0 1-1.33 4.63l-17.62 43.88a13.86 13.86 0 0 1-2.22 4.21 3.54 3.54 0 0 1-2.19.93 11.89 11.89 0 0 1-4.42-1.19l-3.06-1.23-4.37 10.87 20.32 8.16-5.2 12.95 13.3 5.34 5.2-12.95 8.56 3.44-5.2 12.95 13.32 5.35 5.64-14.05a34 34 0 0 0 6.54.71 25.25 25.25 0 0 0 13.89-3.75 20.9 20.9 0 0 0 8.43-10 19.85 19.85 0 0 0 1.32-10.48zm-30.89-52.06l8.61 3.46c5 2 8.43 3.75 10.14 5.17a9 9 0 0 1 3.21 4.91 9.74 9.74 0 0 1-.59 5.92 9.54 9.54 0 0 1-3.73 4.62 10.44 10.44 0 0 1-6.26 1.42c-2.46-.12-6-1.05-10.46-2.86l-8.61-3.46zm4.83 58.41a11.65 11.65 0 0 1-7.16 1.59 33.81 33.81 0 0 1-8.65-2.4l-5.74-2.31a12.69 12.69 0 0 1-3.39-1.73 1.87 1.87 0 0 1-.52-1.45 24.57 24.57 0 0 1 1.45-4.38l6.84-17 10.18 4.09c4.48 1.8 7.6 3.55 9.45 5.26a10.71 10.71 0 0 1 3.41 5.64 11.11 11.11 0 0 1-.71 6.58 12 12 0 0 1-5.16 6.12z"/></g><g opacity=".29"><circle class="cls-3" cx="845.02" cy="790.34" r="84.26" transform="rotate(-68.12 785.297 808.052)"/><circle class="cls-4" cx="842.24" cy="777.31" r="84.26" transform="rotate(-68.12 782.51 795.025)"/><path class="cls-3" d="M820.77 754.77a18.93 18.93 0 0 0-4-9.31 38.08 38.08 0 0 0-7.21-6.49 27 27 0 0 0 10.06-1.1 20.15 20.15 0 0 0 7.28-4.25 18.23 18.23 0 0 0 4.68-6.7 18 18 0 0 0 .79-11.13 21.35 21.35 0 0 0-6.28-10.49 31.52 31.52 0 0 0-4.69-3.59l5.58-13.88-13.3-5.34-5.2 13-8.58-3.44 5.2-13-13.36-5.33-5.2 13-20.32-8.16-4.37 10.87 3.06 1.23a11.37 11.37 0 0 1 4 2.25 3.64 3.64 0 0 1 .94 2.16 14.06 14.06 0 0 1-1.33 4.63l-17.63 43.82a13.86 13.86 0 0 1-2.22 4.21 3.54 3.54 0 0 1-2.19.93 11.89 11.89 0 0 1-4.42-1.19l-3.06-1.23-4.37 10.87 20.32 8.16-5.2 12.95 13.3 5.34 5.2-12.95 8.56 3.44-5.2 12.95 13.32 5.35 5.64-14.05a34 34 0 0 0 6.54.71 25.25 25.25 0 0 0 13.89-3.75 20.9 20.9 0 0 0 8.43-10 19.85 19.85 0 0 0 1.32-10.48zm-30.89-52.05l8.61 3.46c5 2 8.43 3.75 10.14 5.17a9 9 0 0 1 3.21 4.91 9.74 9.74 0 0 1-.59 5.92 9.54 9.54 0 0 1-3.73 4.62 10.44 10.44 0 0 1-6.26 1.42c-2.46-.12-6-1.05-10.46-2.86l-8.61-3.46zm4.83 58.41a11.65 11.65 0 0 1-7.16 1.59 33.81 33.81 0 0 1-8.65-2.4l-5.74-2.31a12.69 12.69 0 0 1-3.39-1.73 1.87 1.87 0 0 1-.52-1.45 24.57 24.57 0 0 1 1.45-4.38l6.84-17 10.18 4.09c4.48 1.8 7.6 3.55 9.45 5.26a10.71 10.71 0 0 1 3.41 5.64 11.11 11.11 0 0 1-.71 6.58 12 12 0 0 1-5.16 6.12z"/></g><g opacity=".31"><circle class="cls-3" cx="845.02" cy="805.33" r="84.26" transform="rotate(-68.12 785.295 823.04)"/><circle class="cls-4" cx="842.24" cy="792.3" r="84.26" transform="rotate(-68.12 782.514 810.018)"/><path class="cls-3" d="M794.72 776.11l26.05-6.39a18.93 18.93 0 0 0-4-9.31 38.08 38.08 0 0 0-7.21-6.49 27 27 0 0 0 10.06-1.1 20.15 20.15 0 0 0 7.28-4.25 18.23 18.23 0 0 0 4.68-6.7 18 18 0 0 0 .79-11.13 21.35 21.35 0 0 0-6.28-10.49 31.52 31.52 0 0 0-4.69-3.59l5.58-13.88-13.3-5.34-5.2 13-8.58-3.44 5.2-13-13.36-5.28-5.2 13-20.32-8.16-4.37 10.87 3.06 1.23a11.37 11.37 0 0 1 4 2.25 3.64 3.64 0 0 1 .94 2.16 14.06 14.06 0 0 1-1.33 4.63l-17.62 43.88a13.86 13.86 0 0 1-2.22 4.21 3.54 3.54 0 0 1-2.19.93 11.89 11.89 0 0 1-4.42-1.19l-3.06-1.23-4.37 10.87 20.32 8.16-5.2 12.95 13.3 5.34 5.2-12.95 8.56 3.44-5.2 12.95 13.32 5.35 5.64-14.05a34 34 0 0 0 6.54.71 25.25 25.25 0 0 0 13.89-3.75 20.9 20.9 0 0 0 8.43-10 19.85 19.85 0 0 0 1.33-10.6zm-4.84-58.39l8.61 3.46c5 2 8.43 3.75 10.14 5.17a9 9 0 0 1 3.21 4.91 9.74 9.74 0 0 1-.59 5.92 9.54 9.54 0 0 1-3.73 4.62 10.44 10.44 0 0 1-6.26 1.42c-2.46-.12-6-1.05-10.46-2.86l-8.61-3.46zm4.83 58.41a11.65 11.65 0 0 1-7.16 1.59 33.81 33.81 0 0 1-8.65-2.4l-5.74-2.31a12.69 12.69 0 0 1-3.39-1.73 1.87 1.87 0 0 1-.52-1.45 24.57 24.57 0 0 1 1.45-4.38l6.84-17 10.18 4.09c4.48 1.8 7.6 3.55 9.45 5.26a10.71 10.71 0 0 1 3.41 5.64 11.11 11.11 0 0 1-.71 6.58 12 12 0 0 1-5.16 6.12z"/></g><g opacity=".34"><circle class="cls-3" cx="845.02" cy="820.32" r="84.26" transform="rotate(-68.12 785.3 838.033)"/><circle class="cls-4" cx="842.24" cy="807.29" r="84.26" transform="rotate(-68.12 782.511 825.006)"/><path class="cls-3" d="M794.72 791.1l26.05-6.38a18.93 18.93 0 0 0-4-9.31 38.08 38.08 0 0 0-7.21-6.49 27 27 0 0 0 10.06-1.1 20.15 20.15 0 0 0 7.28-4.25 18.23 18.23 0 0 0 4.68-6.7 18 18 0 0 0 .79-11.13 21.35 21.35 0 0 0-6.28-10.49 31.52 31.52 0 0 0-4.69-3.59l5.58-13.88-13.3-5.34-5.2 13-8.58-3.44 5.2-13-13.36-5.28-5.2 13-20.32-8.16-4.37 10.87 3.06 1.23a11.37 11.37 0 0 1 4 2.25 3.64 3.64 0 0 1 .94 2.16 14.06 14.06 0 0 1-1.33 4.63l-17.62 43.88a13.86 13.86 0 0 1-2.22 4.21 3.54 3.54 0 0 1-2.19.93 11.89 11.89 0 0 1-4.42-1.19l-3.06-1.23-4.37 10.87 20.32 8.16-5.2 12.95 13.3 5.34 5.2-12.95 8.56 3.44-5.2 12.95 13.32 5.35 5.64-14.05a34 34 0 0 0 6.54.71 25.25 25.25 0 0 0 13.89-3.75 20.9 20.9 0 0 0 8.43-10 19.85 19.85 0 0 0 1.33-10.6zm-4.84-58.38l8.61 3.46c5 2 8.43 3.75 10.14 5.17a9 9 0 0 1 3.21 4.91 9.74 9.74 0 0 1-.59 5.92 9.54 9.54 0 0 1-3.73 4.62 10.44 10.44 0 0 1-6.26 1.42c-2.46-.12-6-1.05-10.46-2.86l-8.61-3.46zm4.83 58.41a11.65 11.65 0 0 1-7.16 1.59 33.81 33.81 0 0 1-8.65-2.4l-5.74-2.31a12.69 12.69 0 0 1-3.39-1.73 1.87 1.87 0 0 1-.52-1.45 24.57 24.57 0 0 1 1.45-4.38l6.84-17 10.18 4.09c4.48 1.8 7.6 3.55 9.45 5.26a10.71 10.71 0 0 1 3.41 5.64 11.11 11.11 0 0 1-.71 6.58 12 12 0 0 1-5.16 6.12z"/></g><g opacity=".36"><circle class="cls-3" cx="845.02" cy="835.3" r="84.26" transform="rotate(-68.12 785.297 853.021)"/><circle class="cls-4" cx="842.24" cy="822.28" r="84.26" transform="rotate(-68.12 782.509 839.994)"/><path class="cls-3" d="M794.72 806.09l26.05-6.37a18.93 18.93 0 0 0-4-9.31 38.08 38.08 0 0 0-7.21-6.49 27 27 0 0 0 10.06-1.1 20.15 20.15 0 0 0 7.28-4.25 18.23 18.23 0 0 0 4.68-6.7 18 18 0 0 0 .79-11.13 21.35 21.35 0 0 0-6.28-10.49 31.52 31.52 0 0 0-4.69-3.59l5.58-13.88-13.3-5.34-5.2 13-8.58-3.44 5.2-13-13.3-5.34-5.2 13-20.32-8.16-4.37 10.87 3.06 1.23a11.37 11.37 0 0 1 4 2.25 3.64 3.64 0 0 1 .94 2.16 14.06 14.06 0 0 1-1.33 4.63l-17.62 43.88a13.86 13.86 0 0 1-2.22 4.21 3.54 3.54 0 0 1-2.19.93 11.89 11.89 0 0 1-4.42-1.19l-3.06-1.23-4.37 10.87 20.32 8.16-5.2 12.95 13.3 5.34 5.2-12.95 8.56 3.44-5.2 12.95 13.32 5.35 5.64-14.05a34 34 0 0 0 6.54.71 25.25 25.25 0 0 0 13.89-3.75 20.9 20.9 0 0 0 8.43-10 19.85 19.85 0 0 0 1.27-10.54zm-4.84-58.37l8.61 3.46c5 2 8.43 3.75 10.14 5.17a9 9 0 0 1 3.21 4.91 9.74 9.74 0 0 1-.59 5.92 9.54 9.54 0 0 1-3.73 4.62 10.44 10.44 0 0 1-6.26 1.42c-2.46-.12-6-1.05-10.46-2.86l-8.61-3.46zm4.83 58.41a11.65 11.65 0 0 1-7.16 1.59 33.81 33.81 0 0 1-8.65-2.4l-5.74-2.31a12.69 12.69 0 0 1-3.39-1.73 1.87 1.87 0 0 1-.52-1.45 24.57 24.57 0 0 1 1.45-4.38l6.84-17 10.18 4.09c4.48 1.8 7.6 3.55 9.45 5.26a10.71 10.71 0 0 1 3.41 5.64 11.11 11.11 0 0 1-.71 6.58 12 12 0 0 1-5.16 6.12z"/></g><g opacity=".39"><circle class="cls-3" cx="845.02" cy="850.29" r="84.26" transform="rotate(-68.12 785.294 868.01)"/><circle class="cls-4" cx="842.24" cy="837.27" r="84.26" transform="rotate(-68.12 782.506 854.982)"/><path class="cls-3" d="M794.72 821.08l26.05-6.36a18.93 18.93 0 0 0-4-9.31 38.08 38.08 0 0 0-7.21-6.49 27 27 0 0 0 10.06-1.1 20.15 20.15 0 0 0 7.28-4.25 18.23 18.23 0 0 0 4.68-6.7 18 18 0 0 0 .79-11.13 21.35 21.35 0 0 0-6.28-10.49 31.52 31.52 0 0 0-4.69-3.59l5.58-13.88-13.3-5.34-5.2 13-8.58-3.44 5.2-13-13.3-5.34-5.2 13-20.32-8.16-4.37 10.87 3.06 1.23a11.37 11.37 0 0 1 4 2.25 3.64 3.64 0 0 1 .94 2.16 14.06 14.06 0 0 1-1.33 4.63l-17.62 43.88a13.86 13.86 0 0 1-2.22 4.21 3.54 3.54 0 0 1-2.19.93 11.89 11.89 0 0 1-4.42-1.19l-3.06-1.23-4.37 10.87 20.32 8.16-5.2 12.95 13.3 5.34 5.2-12.95 8.56 3.44-5.2 12.95 13.32 5.35 5.64-14.05a34 34 0 0 0 6.54.71 25.25 25.25 0 0 0 13.89-3.75 20.9 20.9 0 0 0 8.43-10 19.85 19.85 0 0 0 1.27-10.54zm-30.88-52.06l8.61 3.46c5 2 8.43 3.75 10.14 5.17a9 9 0 0 1 3.21 4.91 9.74 9.74 0 0 1-.59 5.92 9.54 9.54 0 0 1-3.73 4.62 10.44 10.44 0 0 1-6.26 1.42c-2.46-.12-6-1.05-10.46-2.86l-8.61-3.46zm4.83 58.41a11.65 11.65 0 0 1-7.16 1.59 33.81 33.81 0 0 1-8.65-2.4l-5.74-2.31a12.69 12.69 0 0 1-3.39-1.73 1.87 1.87 0 0 1-.52-1.45 24.57 24.57 0 0 1 1.45-4.38l6.84-17 10.18 4.09c4.48 1.8 7.6 3.55 9.45 5.26a10.71 10.71 0 0 1 3.41 5.64 11.11 11.11 0 0 1-.71 6.58 12 12 0 0 1-5.16 6.12z"/></g><g opacity=".41"><circle class="cls-3" cx="845.02" cy="865.28" r="84.26" transform="rotate(-68.12 785.291 882.997)"/><circle class="cls-4" cx="842.24" cy="852.25" r="84.26" transform="rotate(-68.12 782.51 869.975)"/><path class="cls-3" d="M794.72 836.07l26.05-6.35a18.61 18.61 0 0 0-4-9.31 37 37 0 0 0-7.21-6.49 26.74 26.74 0 0 0 10.06-1.1 19.7 19.7 0 0 0 7.28-4.25 18.16 18.16 0 0 0 5.42-17.85 21.27 21.27 0 0 0-6.28-10.49 31.18 31.18 0 0 0-4.69-3.59l5.58-13.88-13.3-5.34-5.2 13-8.58-3.44 5.2-13-13.3-5.34-5.2 13-20.32-8.16-4.37 10.87 3.06 1.23a11.45 11.45 0 0 1 4 2.25 3.61 3.61 0 0 1 .94 2.16c.06.76-.4 2.3-1.33 4.63l-17.62 43.88a13.62 13.62 0 0 1-2.22 4.21 3.56 3.56 0 0 1-2.19.93 12.15 12.15 0 0 1-4.39-1.22l-3.06-1.23-4.37 10.87 20.32 8.16-5.2 12.95 13.3 5.34 5.2-12.95 8.56 3.44-5.2 12.95 13.32 5.35 5.64-14.05a34 34 0 0 0 6.54.71 25.09 25.09 0 0 0 13.89-3.75 20.77 20.77 0 0 0 8.43-10 19.85 19.85 0 0 0 1.29-10.49zm-30.88-52.06l8.61 3.46c5 2 8.43 3.75 10.14 5.17a9 9 0 0 1 3.21 4.91 11.063 11.063 0 0 1 21.73 4.17 10.4 10.4 0 0 1-6.26 1.42c-2.46-.09-6-1.05-10.46-2.86l-8.61-3.46zm4.83 58.41a11.6 11.6 0 0 1-7.16 1.59 33.51 33.51 0 0 1-8.65-2.4l-5.74-2.31a12.14 12.14 0 0 1-3.39-1.73 1.92 1.92 0 0 1-.52-1.45 27.19 27.19 0 0 1 1.45-4.38l6.84-17 10.18 4.09c4.48 1.8 7.61 3.54 9.45 5.26a10.5 10.5 0 0 1 3.41 5.64 11 11 0 0 1-.71 6.58 12 12 0 0 1-5.16 6.12z"/></g><circle class="cls-3" cx="843.63" cy="878.31" r="84.26" transform="rotate(-68.12 783.9 896.022)"/><circle class="cls-4" cx="840.84" cy="865.28" r="84.26" transform="rotate(-68.12 781.12 883)"/><path class="cls-3" d="M819.37 842.72a18.61 18.61 0 0 0-4-9.31 37 37 0 0 0-7.21-6.49 26.74 26.74 0 0 0 10.06-1.1 19.7 19.7 0 0 0 7.28-4.25 18.16 18.16 0 0 0 5.42-17.85 21.27 21.27 0 0 0-6.28-10.49 31.18 31.18 0 0 0-4.69-3.59l5.58-13.88-13.3-5.34-5.2 13-8.58-3.44 5.2-13-13.3-5.34-5.2 13-20.32-8.16-4.37 10.87 3.06 1.23a11.45 11.45 0 0 1 4 2.25 3.61 3.61 0 0 1 .94 2.16c.06.76-.4 2.3-1.33 4.63l-17.62 43.88a13.62 13.62 0 0 1-2.22 4.21 3.56 3.56 0 0 1-2.19.93 12.15 12.15 0 0 1-4.42-1.19l-3.06-1.23-4.37 10.87 20.32 8.16-5.2 12.95 13.3 5.34 5.2-12.95 8.56 3.44-5.2 12.95 13.32 5.35 5.64-14.05a34 34 0 0 0 6.54.71 25.09 25.09 0 0 0 13.89-3.75 20.77 20.77 0 0 0 8.43-10 19.85 19.85 0 0 0 1.32-10.52zm-30.88-52l8.61 3.46c5 2 8.43 3.75 10.14 5.17a9 9 0 0 1 3.21 4.91 10.42 10.42 0 0 1-4.34 10.46 10.4 10.4 0 0 1-6.26 1.42c-2.46-.09-6-1.05-10.46-2.86l-8.61-3.46zm4.83 58.41a11.6 11.6 0 0 1-7.16 1.59 33.51 33.51 0 0 1-8.65-2.4l-5.74-2.31a12.14 12.14 0 0 1-3.39-1.73 1.92 1.92 0 0 1-.52-1.45 27.19 27.19 0 0 1 1.45-4.38l6.84-17 10.18 4.09c4.48 1.8 7.61 3.54 9.45 5.26a10.5 10.5 0 0 1 3.41 5.64 11 11 0 0 1-.71 6.58 12 12 0 0 1-5.16 6.12zm0 0"/><g clip-path="url(#clip-path)"><path d="M584.58 990.58c-.52 31.63-113.53 55.42-252.4 53.12s-251-29.8-250.51-61.43 113.53-55.42 252.44-53.12 251 29.8 250.51 61.43z" fill="#aaa"/><path class="cls-24" d="M225.22 990.81l-56.2-.93a40.8 40.8 0 0 1-40-41.35 40.8 40.8 0 0 1 41.35-40l97.48 1.61-.66 40.06a41.29 41.29 0 0 1-42 40.6z"/><path class="cls-25" d="M248.71 956.03a18 18 0 0 1-18.25 17.69l-19.27-.32a18 18 0 0 1 .59-35.91l19.27.32a18 18 0 0 1 17.66 18.25z"/><path class="cls-26" d="M275.48 693.41l-3 182.76a16.65 16.65 0 0 1-16.87 16.32l-58.37-1a16.65 16.65 0 0 1-16.32-16.87l3-182.76a16.65 16.65 0 0 1 16.87-16.32l58.37 1a16.65 16.65 0 0 1 16.32 16.87z"/><path class="cls-27" d="M278.45 891.01l-.14 8.31a11 11 0 0 1-11.2 10.82l-85.1-1.42a11 11 0 0 1-10.82-11.18l.14-8.31a11 11 0 0 1 11.18-10.81l85.12 1.41a11 11 0 0 1 10.82 11.18z"/><path class="cls-24" d="M440.83 994.37l56.2.93a40.8 40.8 0 0 0 41.35-40 40.8 40.8 0 0 0-40-41.34l-97.48-1.61-.66 40.06a41.29 41.29 0 0 0 40.6 42z"/><path class="cls-25" d="M418.5 958.83a18 18 0 0 0 17.66 18.25l19.27.32a18 18 0 0 0 .59-35.91l-19.27-.32a18 18 0 0 0-18.25 17.66z"/><path class="cls-26" d="M400.43 695.48l-3 182.76a16.65 16.65 0 0 0 16.32 16.87l58.36 1a16.65 16.65 0 0 0 16.86-16.39l3-182.76a16.65 16.65 0 0 0-16.32-16.87l-58.36-1a16.65 16.65 0 0 0-16.87 16.32z"/><path class="cls-27" d="M390.93 892.87l-.14 8.31a11 11 0 0 0 10.82 11.18l85.12 1.36a11 11 0 0 0 11.18-10.82l.14-8.31a11 11 0 0 0-10.82-11.18l-85.12-1.37a11 11 0 0 0-11.18 10.82z"/><path class="cls-28" d="M62.7 546.59l-45.33-30.11a39.08 39.08 0 0 1-10.9-54 39.08 39.08 0 0 1 54-10.9l45.35 30.14a39.08 39.08 0 0 1 10.9 54 39.08 39.08 0 0 1-54 10.9z"/><path class="cls-29" d="M20.59 503.58a17.25 17.25 0 0 1-4.81-23.86L26 464.34a17.25 17.25 0 0 1 23.85-4.81 17.25 17.25 0 0 1 4.81 23.85l-10.22 15.34a17.25 17.25 0 0 1-23.85 4.81z"/><path class="cls-26" d="M75.97 487.94l-8.48-27.63A16.3 16.3 0 0 1 78.26 440a16.3 16.3 0 0 1 20.31 10.77l8.48 27.63a16.3 16.3 0 0 1-10.77 20.32 16.3 16.3 0 0 1-20.31-10.77z"/><path class="cls-24" d="M225.18 661.72L79.34 564.8a16 16 0 0 1-4.45-22l30.94-46.57a16 16 0 0 1 22-4.45l145.88 96.83a16 16 0 0 1 4.45 22l-30.93 46.57a16 16 0 0 1-22 4.45z"/><path class="cls-27" d="M64.29 561.97l-6.63-4.4a10.57 10.57 0 0 1-2.95-14.61l45.11-67.92a10.57 10.57 0 0 1 14.61-2.95l6.63 4.4a10.57 10.57 0 0 1 2.95 14.61L78.9 559.02a10.57 10.57 0 0 1-14.61 2.95z"/><path class="cls-28" d="M617.94 555.72l46.3-28.59a39.08 39.08 0 0 0 12.68-53.62 39.08 39.08 0 0 0-53.62-12.68L577 489.42a39.08 39.08 0 0 0-12.68 53.62 39.08 39.08 0 0 0 53.62 12.68z"/><path class="cls-29" d="M653.77 518.9l4.95-3.06a20.47 20.47 0 0 0 6.64-28.12l-6.33-10.25a20.47 20.47 0 0 0-28.09-6.64l-4.95 3.05a20.47 20.47 0 0 0-6.64 28.09l6.33 10.25a20.47 20.47 0 0 0 28.09 6.64z"/><path class="cls-24" d="M451.74 665.42l149-92a16 16 0 0 0 5.17-21.88l-29.38-47.57a16 16 0 0 0-21.88-5.17l-149 92a16 16 0 0 0-5.17 21.92l29.38 47.57a16 16 0 0 0 21.88 5.17z"/><path class="cls-28" d="M537.42 753.41c-1.03 62.31-91.58 111.31-202.25 109.51S135.62 809.1 136.65 746.79s91.58-111.34 202.25-109.51 199.55 53.82 198.52 116.13z"/><path class="cls-24" d="M559.47 677.39C557.64 788.16 458.4 799.6 336.25 797.58s-221-16.73-219.13-127.5 102.34-198.93 224.49-196.91 219.69 93.45 217.86 204.22z"/><path class="cls-27" d="M560.93 724.94c-.86 52.11-101.59 92.71-225 90.67s-222.7-45.89-221.82-98.05l.62-37.78c-.86 52.11 98.47 96 221.86 98s224.12-38.56 225-90.67l-.62 37.78z"/><path class="cls-27" d="M117.11 701.52l-.27 16.09c-.83 50.51 97.47 93.23 219.14 95.24s221.33-37.44 222.16-88l.27-16.09c-9.67 17.85-31 33.93-62.38 46.57-42.83 17.26-99.48 26.22-159.52 25.23s-116.36-11.82-158.6-30.48c-30.9-13.63-51.71-30.36-60.8-48.56zM335.9 818.38c-60-1-116.36-11.82-158.6-30.48-43-19-66.42-44-66-70.38l.62-37.78a2.77 2.77 0 0 1 5.53.09c-.83 50.51 97.47 93.23 219.14 95.24s221.33-37.44 222.16-88a2.77 2.77 0 0 1 5.53.09l-.62 37.78c-.44 26.39-24.68 50.59-68.27 68.16-42.83 17.26-99.48 26.22-159.52 25.23z"/><path d="M556.9 643.89c-30.1 39.74-117.06 67.45-219.2 65.76s-188.14-32.26-216.91-73a183.55 183.55 0 0 0-3.68 33.43v1.86c25.33 43 113.92 75.85 219.9 77.6s195.61-28.15 222.34-70.29c0-.62.07-1.24.08-1.86a183.36 183.36 0 0 0-2.57-33.49z" fill="#383838"/><path class="cls-4" d="M330.11 703.78a12.2 12.2 0 0 0-12.39 12l-.44 26.48a12.2 12.2 0 0 0 12 12.39l15.39.25a12.2 12.2 0 0 0 12.39-12l.44-26.48a12.2 12.2 0 0 0-12-12.39l-15.39-.25zm14.34 63.34l-15.34-.25a24.45 24.45 0 0 1-24-24.83l.44-26.48a24.45 24.45 0 0 1 24.82-24l15.39.25a24.45 24.45 0 0 1 24 24.83l-.44 26.48a24.45 24.45 0 0 1-24.83 24z"/><path class="cls-4" d="M361.44 735.85l-18.29-.3a6.12 6.12 0 0 1 .2-12.24l18.29.3a6.12 6.12 0 0 1-.2 12.24z"/><path class="cls-31" d="M484.49 396.24a141.59 141.59 0 1 1-139.23-143.91 141.59 141.59 0 0 1 139.23 143.91z"/><path class="cls-31" d="M217.64 394.59l-23.53-.39a18.72 18.72 0 0 1-18.36-19v-1.87a18.72 18.72 0 0 1 19-18.36l23.54.39a18.72 18.72 0 0 1 18.36 19v1.87a18.72 18.72 0 0 1-19 18.36zm274.01 4.52l-23.54-.39a18.72 18.72 0 0 1-18.36-19v-1.87a18.72 18.72 0 0 1 19-18.36l23.54.39a18.72 18.72 0 0 1 18.36 19v1.87a18.72 18.72 0 0 1-19 18.36z"/><path d="M276.74 404.72a24.48 24.48 0 1 1-24.07-24.88 24.48 24.48 0 0 1 24.07 24.88zm180.92 2.94a24.48 24.48 0 1 1-24.07-24.88 24.48 24.48 0 0 1 24.07 24.88z" fill="#f37b7d"/><path class="cls-27" d="M508.33 519.64c-1.15 69.32-77 124.27-169.52 122.75s-166.52-59-165.37-128.28 77-124.27 169.52-122.75 166.52 59 165.37 128.28z"/><path class="cls-33" d="M305.99 371.02a13 13 0 1 1-12.82-13.25 13 13 0 0 1 12.82 13.25z"/><path class="cls-27" d="M293.32 367.52a4.32 4.32 0 1 1-4.25-4.39 4.32 4.32 0 0 1 4.25 4.39z"/><path class="cls-33" d="M406.65 372.72a13 13 0 1 1-12.82-13.25 13 13 0 0 1 12.82 13.25z"/><path class="cls-34" d="M729.65 343.6L590.56 354a65.25 65.25 0 0 0-60.2 69.93 69.74 69.74 0 0 0 74.75 64.34A135 135 0 0 0 729.65 343.6z"/><path class="cls-35" d="M839.72 321.21a192.82 192.82 0 0 1-74.76 13.75l-209.72-3.46-.82 49.87A176.31 176.31 0 0 0 727.8 560.56a175.49 175.49 0 0 0 178.36-172.57l1.55-94z"/><path class="cls-34" d="M870.24 345.93l-139.13 10.39a65.25 65.25 0 0 0-60.2 69.93 69.74 69.74 0 0 0 74.74 64.35 135 135 0 0 0 124.59-144.67z"/><path class="cls-34" d="M682.11 184.12c-8.77-54.94-50-52.46-50-52.46s-41.16-3.84-51.74 50.78c-7.15 36.93-18.34 92.68-24.34 137.64-2.52 18.84 1.19 33.12 10.42 49.74l16.39-16.88 14.27 28.78 16.47-21.76 14.29 28.76 16.58-28.27 14.38 22.27 16.58-28.26 14.46 17.39c9.78-16.3 13.95-30.45 12.06-49.37-4.51-45.13-13.82-101.21-19.82-138.36z"/><path class="cls-28" d="M653.01 124.13c-1.68-1.29-9.65 2-10.21 2.52-1.13-6.41-6.58-25-10.67-25.1s-10.15 18.37-11.49 24.74c-.54-.55-8.4-4.1-10.12-2.86s.23 17 1 21.53c0 0 2.8 21.74 19.55 22s20.24-21.34 20.24-21.34c.91-4.55 3.38-20.2 1.7-21.49zm-2.25 112.14a55.88 55.88 0 0 1-6.5-9.77 5.69 5.69 0 0 0-6.71-2.81 5.69 5.69 0 0 0-4 6.09 55.86 55.86 0 0 1 .11 11.74l-.65 6.74a11.54 11.54 0 0 0 6.36 11.46 12.82 12.82 0 0 0 16.89-5.19 11.54 11.54 0 0 0-1.18-13zm-41.65-.69a55.88 55.88 0 0 0 6.82-9.55 5.69 5.69 0 0 1 6.8-2.58 5.69 5.69 0 0 1 3.77 6.22 55.88 55.88 0 0 0-.5 11.73l.42 6.76a11.54 11.54 0 0 1-6.71 11.22 12.82 12.82 0 0 1-16.71-5.75 11.54 11.54 0 0 1 1.61-13z"/><path d="M651.28 203.58a2.21 2.21 0 0 1-1.73-3.53c.21-.27 5.1-6.68 12-6.74 4.13 0 7.9 2.14 11.28 6.46a2.27 2.27 0 0 1 .16 2.69 2.21 2.21 0 0 1-3.57.11c-2.5-3.23-5.14-4.85-7.81-4.84-4.7 0-8.47 4.93-8.51 5a2.21 2.21 0 0 1-1.82.85zm-61.48-1.01a2.21 2.21 0 0 1-1.73-3.53c.21-.27 5.1-6.68 12-6.74 4.13 0 7.9 2.14 11.28 6.46a2.27 2.27 0 0 1 .16 2.69 2.21 2.21 0 0 1-3.57.11c-2.5-3.23-5.14-4.85-7.81-4.84-4.7 0-8.47 4.93-8.51 5a2.21 2.21 0 0 1-1.82.85z" fill="#21190f"/><path class="cls-4" d="M645.29 203.35a38.87 38.87 0 0 0-29.68-.49 11.71 11.71 0 0 0-5.94 16.58l20.07 26.69 20.94-26a11.71 11.71 0 0 0-5.39-16.78zm150.04 437.11l-17.45-12.53-6.84-65.37-23.05 3.78 11.79 64.54-27.56 17.55 6.11 9.6 34.01-13.74 16.34 5.42 6.65-9.25zm-108.5 2.26l-10.59-18.68 21.19-62.22-22.51-6.23-16.35 63.53-32.38 4.38 1.53 11.29 36.63 1.78 12.57 11.77 9.91-5.62z"/><path class="cls-35" d="M782.76 558.95l-2.81-17.14-47.73 7.83 2.81 17.14a11.26 11.26 0 0 0 12.93 9.29l25.51-4.18a11.26 11.26 0 0 0 9.29-12.94zm-115.15-25.13l-4.63 16.74a11.26 11.26 0 0 0 7.85 13.85l24.91 6.89a11.26 11.26 0 0 0 13.86-7.85l4.62-16.73z"/><path class="cls-27" d="M393.98 369.18a4.32 4.32 0 1 1-4.25-4.39 4.32 4.32 0 0 1 4.25 4.39z"/><path d="M355.68 415.28l-26.22-.43a18.46 18.46 0 0 1-18.1-18.71 18.46 18.46 0 0 1 18.75-18.11l26.22.43a18.46 18.46 0 0 1 18.1 18.71 18.46 18.46 0 0 1-18.71 18.1z" fill="#f69989"/><path class="cls-27" d="M415.4 646.02l-153.29-2.53a57.63 57.63 0 0 1-56.5-58.4l1.76-106.75a57.63 57.63 0 0 1 58.4-56.5l153.34 2.53a57.63 57.63 0 0 1 56.5 58.4l-1.81 106.75a57.63 57.63 0 0 1-58.4 56.5z"/><path class="cls-27" d="M190.75 488.19a25.67 25.67 0 0 1-25.17-26l.49-29.94a25.67 25.67 0 0 1 26-25.17 25.67 25.67 0 0 1 25.17 26l-.49 29.94a25.67 25.67 0 0 1-26 25.17zm301.13 4.98a25.67 25.67 0 0 1-25.17-26l.49-29.94a25.67 25.67 0 0 1 26-25.17 25.67 25.67 0 0 1 25.17 26l-.49 29.94a25.67 25.67 0 0 1-26 25.17zM357.02 669.52l-37.3-.62a42.89 42.89 0 0 1-42-43.46l.37-22.68a42.89 42.89 0 0 1 43.46-42l37.3.62a42.88 42.88 0 0 1 42 43.46l-.37 22.68a42.88 42.88 0 0 1-43.46 42z"/><path class="cls-27" d="M474.53 388.18c-.63 38.42-16.56 70.4-37.49 78.94a29.29 29.29 0 0 0 11.54 2.6c26.38.44 48.36-35.92 49.11-81.2s-20-82.34-46.4-82.77a29.33 29.33 0 0 0-11.62 2.25c20.63 9.23 35.5 41.72 34.86 80.14zm-262.97-4.34c-.63 38.42 14.23 70.91 34.86 80.14a29.28 29.28 0 0 1-11.62 2.25c-26.38-.44-47.15-37.49-46.4-82.77s22.74-81.63 49.11-81.19a29.31 29.31 0 0 1 11.54 2.63c-20.92 8.54-36.86 40.52-37.49 78.94z"/><path class="cls-38" d="M400.98 457.16c-28.56-.47-52.33-12.31-58.68-27.87a21.77 21.77 0 0 0-2 8.58c-.32 19.61 26.7 36 60.35 36.51s61.2-14.89 61.53-34.49a21.77 21.77 0 0 0-1.67-8.64c-6.86 15.34-31 26.39-59.57 25.91z"/><path class="cls-38" d="M282.8 455.21c-28.56-.47-52.33-12.31-58.68-27.87a21.81 21.81 0 0 0-2 8.58c-.32 19.61 26.7 36 60.35 36.51s61.2-14.89 61.53-34.49a21.77 21.77 0 0 0-1.67-8.64c-6.86 15.34-31 26.39-59.57 25.91z"/><path class="cls-24" d="M216.16 270.81c.25-15.12-13.65-27.62-31-27.91s-31.7 11.74-32 26.87c0 .63 0 1.24.08 1.86a136.22 136.22 0 0 0-29.28-3.66c-3.29-.05-6.55 0-9.78.21 14.51-68.63 91.49-120.14 183.38-118.62 101.32 1.67 182.4 67.18 181.09 146.31S216 280.72 216.16 270.81z"/><path class="cls-27" d="M90.11 297.9a39.58 39.58 0 1 0 40.22-38.66 39.45 39.45 0 0 0-40.22 38.66zm380.57 51.7l-254-4.2c-25.83-.43-44.92-21.63-39.64-44l4.19-17.81c4-17.09 21.15-29.21 40.85-28.88l246.21 4.01c19.7.33 36.42 13 39.87 30.22l3.6 17.94c4.53 22.58-15.25 43.14-41.08 42.72z"/><path class="cls-26" d="M606.61 496.72l9.39-27.33a16.3 16.3 0 0 0-10.09-20.67 16.3 16.3 0 0 0-20.66 10.09l-9.39 27.33a16.3 16.3 0 0 0 10.09 20.65 16.3 16.3 0 0 0 20.66-10.07z"/><path class="cls-27" d="M615.84 571.08l6.77-4.18a10.57 10.57 0 0 0 3.43-14.51l-42.84-69.37a10.57 10.57 0 0 0-14.51-3.43l-6.77 4.18a10.57 10.57 0 0 0-3.43 14.51l42.85 69.37a10.57 10.57 0 0 0 14.5 3.43zm41.51-523.73a10.65 10.65 0 1 1-10.47-10.83 10.65 10.65 0 0 1 10.48 10.83zm-474.3 2.82a10.65 10.65 0 1 1-10.47-10.83 10.65 10.65 0 0 1 10.47 10.83zm656.68-26.68A23.11 23.11 0 1 1 817.01 0a23.11 23.11 0 0 1 22.72 23.49zm67.78 392.09a7.2 7.2 0 1 1-7.08-7.32 7.2 7.2 0 0 1 7.08 7.32zM743.54 249.9a10.65 10.65 0 1 1-10.43-10.83 10.65 10.65 0 0 1 10.48 10.83zm-51.85 890.43a10.65 10.65 0 1 1-10.47-10.83 10.65 10.65 0 0 1 10.47 10.83zm-647.58-53.44a7.2 7.2 0 1 1-7.08-7.32 7.2 7.2 0 0 1 7.08 7.32zM17.56 220.55a7.2 7.2 0 1 1 7.32-7.08 7.2 7.2 0 0 1-7.32 7.08m907.86-34.99a7.2 7.2 0 1 1 7.32-7.08 7.2 7.2 0 0 1-7.32 7.08M350.9 22.61a7.2 7.2 0 1 1 7.32-7.08 7.2 7.2 0 0 1-7.32 7.08M873.58 1076a7.2 7.2 0 1 1 7.32-7.08 7.2 7.2 0 0 1-7.32 7.08M97.73 83.72A23.11 23.11 0 1 1 121.22 61a23.11 23.11 0 0 1-23.49 22.72m473.6 802.36a23.11 23.11 0 1 1 23.49-22.72 23.11 23.11 0 0 1-23.49 22.72M73.98 746.64a7.2 7.2 0 1 1-7.08-7.32 7.2 7.2 0 0 1 7.08 7.32zm23.94 69.22a10.65 10.65 0 1 1-10.48-10.83 10.65 10.65 0 0 1 10.48 10.83z"/></g></svg>